<svg width="65" height="64" viewBox="0 0 65 64" fill="none" xmlns="http://www.w3.org/2000/svg">
<g id="Clip path group">
<mask id="mask0_2463_14" style="mask-type:luminance" maskUnits="userSpaceOnUse" x="0" y="0" width="65" height="64">
<g id="a">
<path id="Vector" d="M64.6877 0H0.687744V64H64.6877V0Z" fill="white"/>
</g>
</mask>
<g mask="url(#mask0_2463_14)">
<g id="Group">
<path id="Vector_2" d="M64.6877 49.59C62.3597 50.182 60.9197 49.616 59.6277 47.676L50.4397 34.964L49.1117 33.204L38.3817 47.718C37.1557 49.464 35.8697 50.224 33.5817 49.606L47.3217 31.162L34.5297 14.502C36.7297 14.074 38.2497 14.292 39.5997 16.262L49.1297 29.132L58.7297 16.332C59.9597 14.586 61.2817 13.922 63.4897 14.566L58.5297 21.142L51.8097 29.892C51.0097 30.892 51.1197 31.576 51.8557 32.542L64.6877 49.59ZM0.703744 30.854L1.82774 25.326C4.88774 14.386 17.4277 9.84003 26.0757 16.6C31.1297 20.576 32.3857 26.2 32.1357 32.5H3.64774C3.21974 43.84 11.3817 50.684 21.7877 47.192C25.4377 45.966 27.5877 43.108 28.6637 39.532C29.2097 37.74 30.1137 37.46 31.7977 37.972C30.9377 42.444 28.9977 46.18 24.8977 48.518C18.7717 52.018 10.0277 50.886 5.42774 46.022C2.68774 43.2 1.55574 39.624 1.04774 35.8C0.967744 35.168 0.807744 34.566 0.687744 33.96C0.698411 32.9254 0.703744 31.8907 0.703744 30.856V30.854ZM3.69974 30.094H29.4437C29.2757 21.894 24.1697 16.07 17.1917 16.02C9.53174 15.96 4.03174 21.646 3.69974 30.094Z" fill="black"/>
</g>
</g>
</g>
</svg>
