<svg width="31" height="64" viewBox="0 0 31 64" fill="none" xmlns="http://www.w3.org/2000/svg">
<g id="Clip path group">
<mask id="mask0_2463_3" style="mask-type:luminance" maskUnits="userSpaceOnUse" x="0" y="0" width="31" height="64">
<g id="a">
<path id="Vector" d="M30.7084 0H0.94104V64H30.7084V0Z" fill="white"/>
</g>
</mask>
<g mask="url(#mask0_2463_3)">
<g id="Group">
<path id="Vector_2" d="M21.5324 7.13325C18.8344 3.94632 16.5112 0.709589 16.0366 0.0373468C15.9866 -0.0124489 15.9117 -0.0124489 15.8617 0.0373468C15.3871 0.709589 13.0638 3.94632 10.3659 7.13325C-12.7915 36.5376 14.0131 56.3813 14.0131 56.3813L14.2379 56.5306C14.4378 59.5932 14.9374 64 14.9374 64H15.9366H16.9359C16.9359 64 17.4355 59.618 17.6354 56.5306L17.8602 56.3565C17.8852 56.3565 44.6898 36.5376 21.5324 7.13325ZM15.9366 55.933C15.9366 55.933 14.7376 54.9123 14.4128 54.3893V54.3397L15.8617 22.3209C15.8617 22.2213 16.0116 22.2213 16.0116 22.3209L17.4605 54.3397V54.3893C17.1357 54.9123 15.9366 55.933 15.9366 55.933Z" fill="#00684A"/>
</g>
</g>
</g>
</svg>
