<svg width="57" height="64" viewBox="0 0 57 64" fill="none" xmlns="http://www.w3.org/2000/svg">
<g id="Clip path group">
<mask id="mask0_2463_83" style="mask-type:luminance" maskUnits="userSpaceOnUse" x="0" y="0" width="57" height="64">
<g id="a">
<path id="Vector" d="M56.4737 0H0.153687V64H56.4737V0Z" fill="white"/>
</g>
</mask>
<g mask="url(#mask0_2463_83)">
<g id="Group">
<path id="Vector_2" d="M28.4132 64C27.5552 64 26.7545 63.7668 26.0109 63.3586L18.4036 58.7517C17.2596 58.1102 17.8316 57.877 18.1748 57.7603C19.7191 57.2355 20.0051 57.1189 21.6067 56.1859C21.7782 56.0692 22.007 56.1275 22.1786 56.2442L28.0128 59.8014C28.2416 59.918 28.5276 59.918 28.6992 59.8014L51.5211 46.3307C51.7499 46.214 51.8643 45.9808 51.8643 45.6892V18.806C51.8643 18.5145 51.7499 18.2812 51.5211 18.1646L28.6992 4.75223C28.4704 4.63561 28.1844 4.63561 28.0128 4.75223L5.19085 18.1646C4.96207 18.2812 4.84766 18.5728 4.84766 18.806V45.6892C4.84766 45.9224 4.96207 46.214 5.19085 46.3307L11.4254 50.0045C14.8001 51.7539 16.9164 49.7129 16.9164 47.6719V21.1386C16.9164 20.7888 17.2024 20.4389 17.6028 20.4389H20.5199C20.8631 20.4389 21.2062 20.7305 21.2062 21.1386V47.6719C21.2062 52.2788 18.7467 54.9613 14.4569 54.9613C13.1414 54.9613 12.1118 54.9613 9.19468 53.5034L3.18893 50.0045C1.70179 49.1297 0.786621 47.4969 0.786621 45.7475V18.8644C0.786621 17.115 1.70179 15.4822 3.18893 14.6074L26.0109 1.13672C27.4409 0.320312 29.3856 0.320312 30.8155 1.13672L53.6374 14.6074C55.1246 15.4822 56.0398 17.115 56.0398 18.8644V45.7475C56.0398 47.4969 55.1246 49.1297 53.6374 50.0045L30.8155 63.4752C30.1291 63.7668 29.2712 64 28.4132 64Z" fill="#5FA04E"/>
<path id="Vector_3" d="M35.5056 45.5142C25.496 45.5142 23.4369 40.849 23.4369 36.8836C23.4369 36.5337 23.7229 36.1839 24.1232 36.1839H27.0975C27.4407 36.1839 27.7267 36.4171 27.7267 36.767C28.1843 39.8576 29.4999 41.3738 35.5628 41.3738C40.3674 41.3738 42.4266 40.2658 42.4266 37.6417C42.4266 36.1255 41.8546 35.0175 34.3616 34.2594C28.1271 33.6179 24.2377 32.2184 24.2377 27.145C24.2377 22.4215 28.1271 19.6224 34.6477 19.6224C41.9689 19.6224 45.5724 22.1883 46.03 27.7865C46.03 27.9615 45.9728 28.1364 45.8584 28.3114C45.7441 28.4279 45.5724 28.5446 45.4008 28.5446H42.3694C42.0833 28.5446 41.7974 28.3114 41.7402 28.0197C41.0538 24.8124 39.2807 23.7627 34.5905 23.7627C29.3282 23.7627 28.6991 25.6289 28.6991 27.0284C28.6991 28.7195 29.4427 29.2444 36.5352 30.1774C43.5705 31.1104 46.888 32.4517 46.888 37.4668C46.888 42.5984 42.7125 45.5142 35.5056 45.5142Z" fill="#5FA04E"/>
</g>
</g>
</g>
</svg>
