<svg width="71" height="64" viewBox="0 0 71 64" fill="none" xmlns="http://www.w3.org/2000/svg">
<g id="Clip path group">
<mask id="mask0_2463_51" style="mask-type:luminance" maskUnits="userSpaceOnUse" x="0" y="0" width="71" height="64">
<g id="a">
<path id="Vector" d="M70.066 0H0.247803V64H70.066V0Z" fill="white"/>
</g>
</mask>
<g mask="url(#mask0_2463_51)">
<g id="Group">
<path id="Vector_2" d="M35.1569 38.7725C38.8293 38.7725 41.8063 35.7404 41.8063 32C41.8063 28.2597 38.8293 25.2275 35.1569 25.2275C31.4846 25.2275 28.5076 28.2597 28.5076 32C28.5076 35.7404 31.4846 38.7725 35.1569 38.7725Z" fill="#087EA4"/>
<path id="Vector_3" d="M35.1569 47.238C53.5186 47.238 68.4037 40.4157 68.4037 31.9999C68.4037 23.5842 53.5186 16.7618 35.1569 16.7618C16.7952 16.7618 1.91016 23.5842 1.91016 31.9999C1.91016 40.4157 16.7952 47.238 35.1569 47.238Z" stroke="#087EA4" stroke-width="3"/>
<path id="Vector_4" d="M22.2002 39.619C31.381 55.8152 44.6245 65.5336 51.7802 61.3257C58.936 57.1178 57.2943 40.5771 48.1135 24.3809C38.9327 8.18475 25.6892 -1.53366 18.5335 2.67422C11.3777 6.88211 13.0194 23.4228 22.2002 39.619Z" stroke="#087EA4" stroke-width="3"/>
<path id="Vector_5" d="M22.2003 24.3808C13.0194 40.577 11.3778 57.1177 18.5335 61.3256C25.6893 65.5335 38.9327 55.8151 48.1136 39.6189C57.2944 23.4228 58.9361 6.88205 51.7803 2.67416C44.6245 -1.53372 31.3811 8.18469 22.2003 24.3808Z" stroke="#087EA4" stroke-width="3"/>
</g>
</g>
</g>
</svg>
