<svg width="65" height="64" viewBox="0 0 65 64" fill="none" xmlns="http://www.w3.org/2000/svg">
<g id="Clip path group">
<mask id="mask0_2463_39" style="mask-type:luminance" maskUnits="userSpaceOnUse" x="0" y="0" width="65" height="64">
<g id="a">
<path id="Vector" d="M64.3739 0H0.373901V64H64.3739V0Z" fill="white"/>
</g>
</mask>
<g mask="url(#mask0_2463_39)">
<g id="Group">
<path id="Vector_2" d="M61.3739 0H3.3739C1.71705 0 0.373901 1.34315 0.373901 3V61C0.373901 62.6569 1.71705 64 3.3739 64H61.3739C63.0308 64 64.3739 62.6569 64.3739 61V3C64.3739 1.34315 63.0308 0 61.3739 0Z" fill="#3178C6"/>
<path id="Vector_3" fill-rule="evenodd" clip-rule="evenodd" d="M37.505 49.734V56.747C38.6412 57.331 39.9849 57.7695 41.5363 58.0615C43.0876 58.354 44.7227 58.5 46.4415 58.5C48.1167 58.5 49.708 58.3395 51.2154 58.018C52.7234 57.6965 54.0449 57.167 55.1814 56.429C56.3174 55.691 57.2169 54.727 57.8799 53.536C58.5424 52.3455 58.8739 50.8735 58.8739 49.1203C58.8739 47.8493 58.6844 46.7353 58.3059 45.7783C57.9269 44.8214 57.3809 43.9704 56.6669 43.2252C55.9534 42.4801 55.0974 41.8117 54.0999 41.22C53.1019 40.6283 51.9769 40.0694 50.7239 39.5435C49.8063 39.1636 48.9833 38.7947 48.255 38.4368C47.5266 38.0788 46.9076 37.7136 46.3978 37.341C45.888 36.9684 45.4947 36.574 45.2179 36.1576C44.9412 35.7413 44.8027 35.27 44.8027 34.7441C44.8027 34.2619 44.9266 33.8273 45.1742 33.4402C45.4219 33.053 45.7715 32.7206 46.223 32.443C46.6745 32.1655 47.2281 31.95 47.8836 31.7966C48.5391 31.6431 49.2673 31.5664 50.0685 31.5664C50.6514 31.5664 51.2664 31.6103 51.9149 31.6979C52.5629 31.7856 53.2149 31.9207 53.8704 32.1034C54.5259 32.286 55.1629 32.5161 55.7824 32.7937C56.4014 33.0713 56.9729 33.3927 57.4974 33.7579V27.2054C56.4339 26.7963 55.2724 26.4931 54.0124 26.2959C52.7524 26.0986 51.3069 26 49.6752 26C48.0147 26 46.4415 26.1789 44.9557 26.5369C43.47 26.8948 42.1626 27.4537 41.0337 28.2134C39.9048 28.9731 39.0126 29.941 38.3572 31.1171C37.7017 32.2932 37.3739 33.6995 37.3739 35.3358C37.3739 37.4251 37.9748 39.2074 39.1765 40.683C40.3783 42.1587 42.2027 43.4079 44.6498 44.4305C45.6112 44.825 46.5071 45.2122 47.3373 45.592C48.1676 45.9719 48.885 46.3664 49.4895 46.7755C50.094 47.1846 50.5709 47.6302 50.9204 48.1123C51.2704 48.5944 51.4449 49.1423 51.4449 49.7559C51.4449 50.209 51.3359 50.629 51.1174 51.016C50.8989 51.403 50.5674 51.739 50.1231 52.024C49.6788 52.309 49.1254 52.532 48.4626 52.6925C47.7998 52.853 47.0242 52.9335 46.1356 52.9335C44.6207 52.9335 43.1204 52.667 41.6346 52.1335C40.1488 51.6005 38.7723 50.8005 37.505 49.734ZM25.7252 32.2772H34.8739V26.5H9.3739V32.2772H18.4779V58H25.7252V32.2772Z" fill="white"/>
</g>
</g>
</g>
</svg>
